<?xml version="1.0" encoding="UTF-8" standalone="no"?>
<svg
   version="1.1"
   viewBox="0 0 381.26229 347.25495"
   id="svg12"
   width="381.2623"
   height="347.25494"
   xmlns:xlink="http://www.w3.org/1999/xlink"
   xmlns="http://www.w3.org/2000/svg"
   xmlns:svg="http://www.w3.org/2000/svg">
  <defs
     id="defs16">
    <linearGradient
       id="linearGradient886">
      <stop
         style="stop-color:#3771c8;stop-opacity:1"
         offset="0"
         id="stop882" />
      <stop
         style="stop-color:#2ca089;stop-opacity:1"
         offset="1"
         id="stop884" />
    </linearGradient>
    <linearGradient
       id="linearGradient5186">
      <stop
         style="stop-color:#ef2008;stop-opacity:1"
         offset="0"
         id="stop5182" />
      <stop
         style="stop-color:#ff6428;stop-opacity:1"
         offset="1"
         id="stop5184" />
    </linearGradient>
    <linearGradient
       xlink:href="#linearGradient5186"
       id="linearGradient1751"
       x1="225.77231"
       y1="173.93456"
       x2="1111.1683"
       y2="173.93456"
       gradientUnits="userSpaceOnUse"
       gradientTransform="matrix(0.45445997,0,0,0.45445997,-81.537582,174.14353)" />
    <linearGradient
       xlink:href="#linearGradient886"
       id="linearGradient11474"
       gradientUnits="userSpaceOnUse"
       gradientTransform="matrix(0.46303176,0,0,0.46303176,-56.588306,251.53577)"
       x1="225.77231"
       y1="173.93456"
       x2="1111.1683"
       y2="173.93456" />
    <linearGradient
       xlink:href="#linearGradient5186"
       id="linearGradient964"
       gradientUnits="userSpaceOnUse"
       gradientTransform="translate(50.827111,4.574805)"
       x1="51.713676"
       y1="99.769508"
       x2="210.40228"
       y2="99.769508" />
    <linearGradient
       xlink:href="#linearGradient1884"
       id="linearGradient888-7"
       x1="171.37463"
       y1="186.7283"
       x2="279.79095"
       y2="150.06499"
       gradientUnits="userSpaceOnUse"
       gradientTransform="translate(-27.823043,-26.731615)" />
    <linearGradient
       id="linearGradient1884">
      <stop
         style="stop-color:#157ee9;stop-opacity:1"
         offset="0"
         id="stop1880" />
      <stop
         style="stop-color:#3ecc78;stop-opacity:1"
         offset="1"
         id="stop1882" />
    </linearGradient>
    <linearGradient
       xlink:href="#linearGradient1160"
       id="linearGradient1094-2"
       gradientUnits="userSpaceOnUse"
       gradientTransform="matrix(0.4787416,0,0,0.4787416,-61.976132,260.06994)"
       x1="239.09921"
       y1="174.31239"
       x2="855.43896"
       y2="174.31239" />
    <linearGradient
       id="linearGradient1160">
      <stop
         style="stop-color:#0d6eff;stop-opacity:1"
         offset="0"
         id="stop1156" />
      <stop
         style="stop-color:#45da64;stop-opacity:1"
         offset="1"
         id="stop1158" />
    </linearGradient>
    <linearGradient
       xlink:href="#linearGradient1160"
       id="linearGradient1207"
       gradientUnits="userSpaceOnUse"
       gradientTransform="matrix(0.4787416,0,0,0.4787416,-61.976131,260.06994)"
       x1="239.09921"
       y1="174.31239"
       x2="855.43896"
       y2="174.31239" />
    <linearGradient
       xlink:href="#linearGradient1160"
       id="linearGradient1422"
       gradientUnits="userSpaceOnUse"
       gradientTransform="matrix(0.4787416,0,0,0.4787416,-61.976131,260.06994)"
       x1="239.09921"
       y1="174.31239"
       x2="855.43896"
       y2="174.31239" />
    <linearGradient
       xlink:href="#linearGradient1160"
       id="linearGradient1426"
       gradientUnits="userSpaceOnUse"
       gradientTransform="matrix(0.4787416,0,0,0.4787416,-37.127193,236.12347)"
       x1="239.09921"
       y1="174.31239"
       x2="855.43896"
       y2="174.31239" />
    <linearGradient
       xlink:href="#linearGradient5186"
       id="linearGradient17043"
       gradientUnits="userSpaceOnUse"
       gradientTransform="matrix(0.47132896,0,0,0.47132896,232.52631,145.93927)"
       x1="225.77231"
       y1="173.93456"
       x2="1111.1683"
       y2="173.93456" />
  </defs>
  <g
     aria-label="PRIVACYSAFE"
     id="text28081"
     style="font-size:50.3032px;line-height:1.25;fill:url(#linearGradient1751);stroke-width:1.25758">
    <path
       d="m 34.255789,236.28868 q 7.344268,0 11.267917,2.81697 3.973953,2.76668 3.973953,8.30003 0,3.01819 -1.106671,5.18123 -1.056367,2.11274 -3.118798,3.47092 -2.012128,1.30789 -4.929713,1.91152 -2.917586,0.60364 -6.58972,0.60364 h -3.873346 v 12.92793 h -4.87941 v -34.35709 q 2.062431,-0.50303 4.577591,-0.65394 2.565463,-0.20121 4.678197,-0.20121 z m 0.402426,4.27577 q -3.118798,0 -4.778804,0.15091 v 13.68247 h 3.672134 q 2.51516,0 4.527288,-0.30182 2.012128,-0.35212 3.370314,-1.10667 1.408489,-0.80485 2.163037,-2.16304 0.754548,-1.35819 0.754548,-3.47092 0,-2.01213 -0.804851,-3.32001 -0.754548,-1.30788 -2.112734,-2.06243 -1.307883,-0.80485 -3.068495,-1.10667 -1.760612,-0.30182 -3.722437,-0.30182 z"
       style="font-family:Ubuntu;-inkscape-font-specification:Ubuntu"
       id="path1148" />
    <path
       d="m 72.637121,256.91299 q 0.804851,1.00606 2.012128,2.66607 1.25758,1.6097 2.565463,3.62183 1.307883,1.96182 2.565463,4.12486 1.307883,2.16304 2.213341,4.17517 h -5.332139 q -1.006064,-1.91153 -2.213341,-3.87335 -1.156974,-1.96183 -2.364251,-3.72244 -1.207276,-1.81091 -2.414553,-3.37031 -1.156974,-1.5594 -2.112735,-2.71637 -0.653941,0.0503 -1.358186,0.0503 -0.653942,0 -1.358186,0 h -4.376379 v 13.63217 h -4.87941 v -34.35709 q 2.062431,-0.50303 4.577591,-0.65394 2.565463,-0.20121 4.678198,-0.20121 7.344267,0 11.16731,2.76667 3.873346,2.76668 3.873346,8.24973 0,3.47092 -1.861218,5.93577 -1.810915,2.46486 -5.382442,3.67214 z M 65.24255,240.56445 q -3.118798,0 -4.778804,0.15091 v 13.12913 h 3.470921 q 2.51516,0 4.527288,-0.25151 2.012128,-0.25152 3.370314,-0.95576 1.40849,-0.70425 2.163038,-1.96183 0.754548,-1.30788 0.754548,-3.42062 0,-1.96182 -0.754548,-3.2697 -0.754548,-1.30789 -2.062431,-2.06244 -1.25758,-0.75454 -3.018192,-1.05636 -1.710309,-0.30182 -3.672134,-0.30182 z"
       style="font-family:Ubuntu;-inkscape-font-specification:Ubuntu"
       id="path1145" />
    <path
       d="m 87.225033,236.6408 h 4.879411 v 34.86012 h -4.879411 z"
       style="font-family:Ubuntu;-inkscape-font-specification:Ubuntu"
       id="path1142" />
    <path
       d="m 128.92634,236.6408 q -1.91152,5.53335 -3.67214,10.26185 -1.7103,4.6782 -3.37031,8.90367 -1.66001,4.22547 -3.32001,8.09881 -1.6097,3.82305 -3.32001,7.59579 h -4.57759 q -1.71031,-3.77274 -3.37032,-7.59579 -1.6097,-3.87334 -3.32001,-8.09881 -1.66,-4.22547 -3.42062,-8.90367 -1.760608,-4.7285 -3.621827,-10.26185 h 5.382447 q 2.71637,7.9479 5.33213,15.29217 2.61577,7.34427 5.38245,13.78308 2.76667,-6.38851 5.38244,-13.73278 2.61577,-7.39457 5.28184,-15.34247 z"
       style="font-family:Ubuntu;-inkscape-font-specification:Ubuntu"
       id="path1139" />
    <path
       d="m 153.92693,271.50092 q -0.85516,-2.26365 -1.60971,-4.42669 -0.75455,-2.21334 -1.5594,-4.47698 h -15.7952 l -3.1691,8.90367 h -5.08063 q 2.01213,-5.53336 3.77274,-10.21155 1.76062,-4.7285 3.42062,-8.95397 1.71031,-4.22547 3.37032,-8.04852 1.66,-3.87334 3.47092,-7.64608 h 4.47698 q 1.81092,3.77274 3.47092,7.64608 1.66001,3.82305 3.32001,8.04852 1.71031,4.22547 3.47092,8.95397 1.76062,4.67819 3.77274,10.21155 z m -4.5776,-12.92793 q -1.6097,-4.37638 -3.2194,-8.45093 -1.5594,-4.12487 -3.26971,-7.89761 -1.76061,3.77274 -3.37031,7.89761 -1.5594,4.07455 -3.1188,8.45093 z"
       style="font-family:Ubuntu;-inkscape-font-specification:Ubuntu"
       id="path1136" />
    <path
       d="m 178.02202,272.25546 q -3.67214,0 -6.69033,-1.20727 -3.01819,-1.20728 -5.18123,-3.52123 -2.16304,-2.31394 -3.37031,-5.68426 -1.15698,-3.42062 -1.15698,-7.79699 0,-4.37638 1.30789,-7.7467 1.35818,-3.42062 3.62183,-5.73456 2.26364,-2.31395 5.28183,-3.52123 3.01819,-1.20727 6.43881,-1.20727 2.16304,0 3.87335,0.30182 1.76061,0.30182 3.01819,0.70424 1.30788,0.40243 2.11273,0.80485 0.80486,0.40243 1.10668,0.60364 l -1.40849,4.02426 q -0.45273,-0.30182 -1.30789,-0.65395 -0.85515,-0.35212 -1.96182,-0.70424 -1.05637,-0.35212 -2.36425,-0.55334 -1.25758,-0.25151 -2.56547,-0.25151 -2.76667,0 -4.98001,0.95576 -2.21334,0.95576 -3.77274,2.76668 -1.5594,1.81091 -2.41456,4.42668 -0.80485,2.56546 -0.80485,5.78487 0,3.11879 0.70425,5.68426 0.75455,2.56546 2.21334,4.42668 1.45879,1.81091 3.62183,2.81698 2.21334,1.00606 5.13092,1.00606 3.37032,0 5.58366,-0.70424 2.21334,-0.70425 3.32001,-1.25758 l 1.25758,4.02425 q -0.35212,0.25152 -1.25758,0.65394 -0.90546,0.35213 -2.26364,0.70425 -1.35819,0.35212 -3.1691,0.60364 -1.81092,0.25151 -3.92365,0.25151 z"
       style="font-family:Ubuntu;-inkscape-font-specification:Ubuntu"
       id="path1133" />
    <path
       d="m 203.37469,271.50092 v -13.98429 q -3.47092,-5.38245 -6.53942,-10.61398 -3.06849,-5.23153 -5.78486,-10.26185 h 5.73456 q 1.91152,4.12486 4.27577,8.40063 2.36425,4.22547 4.87941,8.14912 2.46486,-3.92365 4.82911,-8.14912 2.36425,-4.27577 4.32608,-8.40063 h 5.43274 q -2.71637,5.03032 -5.78487,10.26185 -3.06849,5.18123 -6.48911,10.51337 v 14.0849 z"
       style="font-family:Ubuntu;-inkscape-font-specification:Ubuntu"
       id="path1130" />
    <path
       d="m 233.25478,268.02999 q 7.64608,0 7.64608,-5.23153 0,-1.6097 -0.70424,-2.71637 -0.65394,-1.15697 -1.81092,-1.96183 -1.15697,-0.85515 -2.66607,-1.45879 -1.45879,-0.60364 -3.1188,-1.20728 -1.91152,-0.65394 -3.62183,-1.45879 -1.7103,-0.85515 -2.96788,-1.96182 -1.25758,-1.15698 -2.01213,-2.71638 -0.70425,-1.55939 -0.70425,-3.77274 0,-4.57759 3.1188,-7.14305 3.1188,-2.56546 8.60185,-2.56546 3.1691,0 5.73456,0.70424 2.61577,0.65394 3.82305,1.45879 l -1.5594,3.97396 q -1.05637,-0.65394 -3.16911,-1.25758 -2.06243,-0.65394 -4.8291,-0.65394 -1.40849,0 -2.61577,0.30181 -1.20728,0.30182 -2.11273,0.90546 -0.90546,0.60364 -1.4588,1.5594 -0.50303,0.90546 -0.50303,2.16304 0,1.40849 0.55334,2.36425 0.55333,0.95576 1.5594,1.71031 1.00606,0.70424 2.31394,1.30788 1.35819,0.60364 2.96789,1.20728 2.26365,0.90546 4.12486,1.81091 1.91153,0.90546 3.26971,2.16304 1.40849,1.25758 2.16304,3.01819 0.75455,1.71031 0.75455,4.17517 0,4.57759 -3.37032,7.04245 -3.32001,2.46485 -9.40669,2.46485 -2.06244,0 -3.82305,-0.30182 -1.71031,-0.25151 -3.06849,-0.60363 -1.35819,-0.40243 -2.36425,-0.80486 -0.95576,-0.45272 -1.5091,-0.75454 l 1.45879,-4.02426 q 1.15698,0.65394 3.52123,1.45879 2.36425,0.80485 5.78487,0.80485 z"
       style="font-family:Ubuntu;-inkscape-font-specification:Ubuntu"
       id="path1127" />
    <path
       d="m 275.20762,271.50092 q -0.85516,-2.26365 -1.6097,-4.42669 -0.75455,-2.21334 -1.5594,-4.47698 h -15.79521 l -3.1691,8.90367 h -5.08062 q 2.01213,-5.53336 3.77274,-10.21155 1.76061,-4.7285 3.42061,-8.95397 1.71031,-4.22547 3.37032,-8.04852 1.66,-3.87334 3.47092,-7.64608 h 4.47698 q 1.81092,3.77274 3.47093,7.64608 1.66,3.82305 3.32001,8.04852 1.71031,4.22547 3.47092,8.95397 1.76061,4.67819 3.77274,10.21155 z m -4.57759,-12.92793 q -1.60971,-4.37638 -3.21941,-8.45093 -1.5594,-4.12487 -3.26971,-7.89761 -1.76061,3.77274 -3.37031,7.89761 -1.5594,4.07455 -3.1188,8.45093 z"
       style="font-family:Ubuntu;-inkscape-font-specification:Ubuntu"
       id="path1124" />
    <path
       d="M 285.26816,271.50092 V 236.6408 h 21.02674 v 4.17516 h -16.14733 v 10.51337 h 14.33641 v 4.12486 h -14.33641 v 16.04673 z"
       style="font-family:Ubuntu;-inkscape-font-specification:Ubuntu"
       id="path1121" />
    <path
       d="M 312.28091,271.50092 V 236.6408 h 21.27826 v 4.17516 h -16.39884 v 10.36246 h 14.58792 v 4.07456 h -14.58792 v 12.07277 h 17.65642 v 4.17517 z"
       style="font-family:Ubuntu;-inkscape-font-specification:Ubuntu"
       id="path1118" />
  </g>
  <path
     id="path1133-5"
     style="fill:url(#linearGradient964);fill-opacity:1;stroke:none;stroke-width:3.14001"
     d="m 181.88477,25 c -42.61428,0.08425 -77.55178,33.815368 -79.13282,76.40039 h 35.91602 c 1.76665,-24.499925 20.71974,-43.42921 43.54687,-43.492187 22.82788,0.06188 41.78212,18.991462 43.54883,43.492187 H 261.1582 C 259.57506,58.76098 224.55356,25.008736 181.88477,25 Z" />
  <path
     id="path1133-6-3"
     style="fill:url(#linearGradient888-7);fill-opacity:1;stroke:none;stroke-width:3.14001"
     d="m 88.041017,109.14061 v 21.4629 H 273.56836 v -21.4629 z m 0,29.20313 v 21.26758 H 273.56836 v -21.26758 z m 24.017573,29.00781 c 13.35385,25.01503 39.63909,41.98915 69.82618,42.04883 30.24093,-0.006 56.59265,-16.99202 69.96875,-42.04883 z" />
  <g
     aria-label="LOCKER"
     transform="scale(1.0534437,0.94926762)"
     id="text28081-3-6"
     style="font-size:52.9909px;line-height:1.25;fill:url(#linearGradient1426);stroke-width:1.25758">
    <path
       d="m 97.199878,334.23135 v 4.45124 H 75.102673 v -36.7227 h 5.140117 v 32.27146 z"
       style="font-family:Ubuntu;-inkscape-font-specification:Ubuntu"
       id="path1115" />
    <path
       d="m 98.736562,320.29475 q 0,-4.71619 1.377768,-8.31958 1.43075,-3.60338 3.81534,-5.98797 2.43758,-2.43758 5.61704,-3.65637 3.23244,-1.21879 6.83582,-1.21879 3.55039,0 6.67685,1.21879 3.17946,1.21879 5.56405,3.65637 2.38459,2.38459 3.76235,5.98797 1.43076,3.60339 1.43076,8.31958 0,4.71618 -1.43076,8.31957 -1.37776,3.60338 -3.76235,6.04096 -2.38459,2.38459 -5.56405,3.60338 -3.12646,1.21879 -6.67685,1.21879 -3.60338,0 -6.83582,-1.21879 -3.17946,-1.21879 -5.61704,-3.60338 -2.38459,-2.43758 -3.81534,-6.04096 -1.377768,-3.60339 -1.377768,-8.31957 z m 5.405068,0 q 0,3.33842 0.84786,6.09395 0.84785,2.70253 2.38459,4.61021 1.58973,1.90767 3.81534,2.96749 2.27861,1.00682 5.08713,1.00682 2.80852,0 5.03413,-1.00682 2.22562,-1.05982 3.76236,-2.96749 1.58973,-1.90768 2.43758,-4.61021 0.84785,-2.75553 0.84785,-6.09395 0,-3.33843 -0.84785,-6.04097 -0.84785,-2.75552 -2.43758,-4.6632 -1.53674,-1.90767 -3.76236,-2.9145 -2.22561,-1.05981 -5.03413,-1.05981 -2.80852,0 -5.08713,1.05981 -2.22561,1.00683 -3.81534,2.9145 -1.53674,1.90768 -2.38459,4.6632 -0.84786,2.70254 -0.84786,6.04097 z"
       style="font-family:Ubuntu;-inkscape-font-specification:Ubuntu"
       id="path1112" />
    <path
       d="m 157.2385,339.47745 q -3.86833,0 -7.04779,-1.27178 -3.17945,-1.27178 -5.45806,-3.70936 -2.27861,-2.43759 -3.55039,-5.98798 -1.21879,-3.60338 -1.21879,-8.21358 0,-4.61021 1.37776,-8.1606 1.43076,-3.60338 3.81535,-6.04097 2.38459,-2.43758 5.56404,-3.70936 3.17946,-1.27178 6.78284,-1.27178 2.27861,0 4.0803,0.31795 1.85468,0.31794 3.17945,0.74187 1.37777,0.42393 2.22562,0.84785 0.84785,0.42393 1.1658,0.63589 l -1.48375,4.23927 q -0.47691,-0.31794 -1.37776,-0.68888 -0.90084,-0.37093 -2.06664,-0.74187 -1.11281,-0.37094 -2.49058,-0.5829 -1.32477,-0.26495 -2.70253,-0.26495 -2.9145,0 -5.2461,1.00682 -2.3316,1.00683 -3.97432,2.9145 -1.64272,1.90768 -2.54356,4.6632 -0.84786,2.70254 -0.84786,6.09396 0,3.28543 0.74188,5.98797 0.79486,2.70253 2.3316,4.6632 1.53673,1.90767 3.81534,2.96749 2.3316,1.05981 5.40507,1.05981 3.55039,0 5.88199,-0.74187 2.3316,-0.74187 3.4974,-1.32477 l 1.32477,4.23927 q -0.37093,0.26496 -1.32477,0.68888 -0.95383,0.37094 -2.38459,0.74187 -1.43075,0.37094 -3.33843,0.6359 -1.90767,0.26495 -4.13329,0.26495 z"
       style="font-family:Ubuntu;-inkscape-font-specification:Ubuntu"
       id="path1109" />
    <path
       d="m 201.48586,301.95989 q -1.64272,1.80169 -3.70937,4.02731 -2.06664,2.17263 -4.34525,4.50423 -2.22562,2.27861 -4.45124,4.50423 -2.22561,2.22561 -4.18628,4.13329 2.27861,1.58972 4.82218,3.92132 2.54356,2.3316 4.98114,4.98115 2.43758,2.64954 4.55722,5.40507 2.17262,2.75552 3.60338,5.2461 h -6.04096 q -1.58973,-2.49058 -3.65638,-4.98115 -2.06664,-2.54356 -4.39824,-4.82217 -2.27861,-2.3316 -4.6632,-4.29226 -2.3316,-1.96067 -4.55722,-3.33843 v 17.43401 h -5.14011 v -36.7227 h 5.14011 v 16.21522 q 1.85468,-1.7487 4.0803,-3.92133 2.22562,-2.22562 4.39825,-4.45123 2.17262,-2.22562 4.0803,-4.23927 1.96066,-2.06665 3.28543,-3.60339 z"
       style="font-family:Ubuntu;-inkscape-font-specification:Ubuntu"
       id="path1106" />
    <path
       d="m 207.63278,338.68259 v -36.7227 h 22.41515 v 4.39825 H 212.7729 v 10.91612 h 15.36736 v 4.29227 H 212.7729 v 12.71781 h 18.5998 v 4.39825 z"
       style="font-family:Ubuntu;-inkscape-font-specification:Ubuntu"
       id="path1103" />
    <path
       d="m 255.85446,323.31523 q 0.84785,1.05981 2.11964,2.80851 1.32477,1.69571 2.70253,3.81535 1.37777,2.06664 2.70254,4.34525 1.37776,2.27861 2.3316,4.39825 h -5.61704 q -1.05982,-2.01366 -2.3316,-4.0803 -1.21879,-2.06665 -2.49057,-3.92133 -1.27178,-1.90767 -2.54356,-3.55039 -1.21879,-1.64272 -2.22562,-2.86151 -0.68888,0.053 -1.43076,0.053 -0.68888,0 -1.43075,0 h -4.61021 v 14.36054 h -5.14011 V 302.4898 q 2.17262,-0.52991 4.82217,-0.68888 2.70253,-0.21196 4.92815,-0.21196 7.73667,0 11.76398,2.9145 4.0803,2.9145 4.0803,8.6905 0,3.65638 -1.96066,6.25293 -1.90768,2.59655 -5.67003,3.86834 z m -7.78966,-17.22205 q -3.28544,0 -5.03414,0.15898 v 13.83062 h 3.65637 q 2.64955,0 4.76919,-0.26495 2.11963,-0.26496 3.55039,-1.00683 1.48374,-0.74187 2.2786,-2.06665 0.79487,-1.37776 0.79487,-3.60338 0,-2.06664 -0.79487,-3.4444 -0.79486,-1.37777 -2.17262,-2.17263 -1.32478,-0.79486 -3.17946,-1.11281 -1.80169,-0.31795 -3.86833,-0.31795 z"
       style="font-family:Ubuntu;-inkscape-font-specification:Ubuntu"
       id="path1100" />
  </g>
  <text
     xml:space="preserve"
     style="font-style:normal;font-weight:normal;font-size:24.9725px;line-height:1.25;font-family:sans-serif;fill:url(#linearGradient17043);fill-opacity:1;stroke:none;stroke-width:1.25758"
     x="338.53183"
     y="246.91048"
     id="text28081-6"><tspan
       id="tspan28079-8"
       x="338.53183"
       y="246.91048"
       style="font-style:normal;font-variant:normal;font-weight:normal;font-stretch:normal;font-size:24.9725px;font-family:Ubuntu;-inkscape-font-specification:Ubuntu;fill:url(#linearGradient17043);fill-opacity:1;stroke-width:1.25758">™</tspan></text>
</svg>
